<?xml version="1.0" encoding="UTF-8" standalone="no"?>
<!DOCTYPE svg PUBLIC "-//W3C//DTD SVG 1.1//EN" "http://www.w3.org/Graphics/SVG/1.1/DTD/svg11.dtd">
<svg width="100%" height="100%" viewBox="0 0 67 67" version="1.1" xmlns="http://www.w3.org/2000/svg" xmlns:xlink="http://www.w3.org/1999/xlink" xml:space="preserve" xmlns:serif="http://www.serif.com/" style="fill-rule:evenodd;clip-rule:evenodd;stroke-linejoin:round;stroke-miterlimit:2;">
    <g transform="matrix(0.0310185,0,0,0.0310185,4.44089e-16,-11.1667)">
        <path d="M1842.9,677.1C1638.9,473.1 1368,360 1080,360C485.1,360 0,845.1 0,1440C0,2034.9 485.1,2520 1080,2520C1674.9,2520 2160,2034.9 2160,1440C2160,1152 2046.9,881.1 1842.9,677.1ZM1080,2141.1C754.3,2141.1 488.6,1875.4 488.6,1549.7C488.6,1273.7 673.7,1088.6 836.6,925.7C944.6,817.7 1049.2,713.1 1080,596.6C1110.9,713.2 1213.7,817.7 1323.4,925.7C1486.3,1088.6 1671.4,1273.7 1671.4,1549.7C1671.4,1875.4 1405.7,2141.1 1080,2141.1Z" style="fill:white;fill-rule:nonzero;"/>
    </g>
</svg>
