<?xml version="1.0" encoding="UTF-8" standalone="no"?>
<!DOCTYPE svg PUBLIC "-//W3C//DTD SVG 1.1//EN" "http://www.w3.org/Graphics/SVG/1.1/DTD/svg11.dtd">
<svg width="100%" height="100%" viewBox="0 0 67 67" version="1.1" xmlns="http://www.w3.org/2000/svg" xmlns:xlink="http://www.w3.org/1999/xlink" xml:space="preserve" xmlns:serif="http://www.serif.com/" style="fill-rule:evenodd;clip-rule:evenodd;stroke-linejoin:round;stroke-miterlimit:2;">
    <g transform="matrix(1.01515,0,0,1.01515,-1.01515,-1.01515)">
        <path d="M34,1C52.213,1 67,15.787 67,34C67,52.213 52.213,67 34,67C15.787,67 1,52.213 1,34C1,15.787 15.787,1 34,1ZM35.812,12.981C35.945,12.4 36.53,12.03 37.111,12.159L46.028,14.133C46.631,12.957 47.847,12.214 49.168,12.214C51.104,12.214 52.697,13.808 52.697,15.743C52.697,17.679 51.104,19.272 49.168,19.272C47.369,19.272 45.843,17.896 45.658,16.106L37.576,14.314L34.835,26.1C40.104,26.16 45.226,27.854 49.49,30.949C50.467,29.944 51.811,29.376 53.214,29.376C54.9,29.376 56.485,30.197 57.457,31.576C57.558,31.734 57.65,31.898 57.733,32.067C59.038,34.709 57.945,37.957 55.309,39.273C55.831,43.889 53.753,48.433 49.921,51.059C45.262,54.315 39.682,55.998 34,55.861C28.318,55.999 22.737,54.316 18.079,51.059C14.247,48.433 12.169,43.889 12.691,39.273C12.523,39.19 12.358,39.098 12.2,38.997C9.723,37.413 8.977,34.078 10.543,31.589C10.725,31.334 10.927,31.096 11.149,30.875C13.19,28.88 16.51,28.914 18.51,30.949C22.668,27.931 27.645,26.243 32.781,26.107L35.812,12.981ZM43.018,48.008C43.171,47.854 43.257,47.646 43.257,47.429C43.257,46.978 42.886,46.607 42.435,46.607C42.335,46.607 42.236,46.626 42.142,46.661C37.293,50.16 30.707,50.16 25.858,46.661C25.764,46.626 25.665,46.607 25.565,46.607C25.114,46.607 24.743,46.978 24.743,47.429C24.743,47.646 24.829,47.854 24.982,48.008C30.337,51.93 37.663,51.93 43.018,48.008ZM38.768,38.169C38.768,40.127 40.379,41.738 42.338,41.738C44.296,41.738 45.907,40.127 45.907,38.169C45.907,36.211 44.296,34.599 42.338,34.599C42.335,34.599 42.333,34.599 42.331,34.599C40.376,34.599 38.768,36.208 38.768,38.162C38.768,38.164 38.768,38.167 38.768,38.169ZM22.093,38.169C22.093,40.127 23.704,41.738 25.662,41.738C27.621,41.738 29.232,40.127 29.232,38.169C29.232,36.211 27.621,34.599 25.662,34.599C25.66,34.599 25.658,34.599 25.656,34.599C23.701,34.599 22.093,36.208 22.093,38.162C22.093,38.164 22.093,38.167 22.093,38.169Z" style="fill:white;"/>
    </g>
</svg>
