<?xml version="1.0" encoding="UTF-8" standalone="no"?>
<!DOCTYPE svg PUBLIC "-//W3C//DTD SVG 1.1//EN" "http://www.w3.org/Graphics/SVG/1.1/DTD/svg11.dtd">
<svg width="100%" height="100%" viewBox="0 0 67 67" version="1.1" xmlns="http://www.w3.org/2000/svg" xmlns:xlink="http://www.w3.org/1999/xlink" xml:space="preserve" xmlns:serif="http://www.serif.com/" style="fill-rule:evenodd;clip-rule:evenodd;stroke-linejoin:round;stroke-miterlimit:2;">
    <path d="M67,5.182C67,2.322 64.678,0 61.818,0L5.182,0C2.322,0 0,2.322 0,5.182L0,61.818C0,64.678 2.322,67 5.182,67L61.818,67C64.678,67 67,64.678 67,61.818L67,5.182ZM11.169,35.277L11.169,25.176L8.714,25.176L8.714,35.417C8.714,39.276 11.403,41.824 14.91,41.824C16.617,41.824 18.137,41.17 19.236,40.024L19.236,41.544L21.668,41.544L21.668,25.176L19.213,25.176L19.213,35.277C19.213,37.873 17.459,39.626 15.191,39.626C12.899,39.626 11.169,37.919 11.169,35.277ZM24.077,41.544L24.077,25.176L26.438,25.176L26.438,31.138C27.551,29.999 29.078,29.358 30.671,29.361C34.178,29.361 36.937,32.144 36.937,35.604C36.937,39.042 34.178,41.824 30.671,41.824C29.01,41.824 27.491,41.146 26.415,40.047L26.415,41.544L24.077,41.544ZM38.34,35.581C38.34,32.214 40.983,29.385 44.467,29.385C47.904,29.385 50.429,32.027 50.429,35.581L50.429,36.353L40.725,36.353C41.053,38.294 42.666,39.743 44.677,39.743C46.057,39.743 47.226,39.182 48.114,37.99L49.821,39.252C48.629,40.842 46.852,41.801 44.677,41.801C41.1,41.801 38.34,39.135 38.34,35.581ZM58.286,31.723L57.304,31.723C55.761,31.723 54.638,32.915 54.638,34.763L54.638,41.544L52.277,41.544L52.277,29.618L54.615,29.618L54.615,31.092C55.2,30.133 56.158,29.525 57.468,29.525L58.286,29.525L58.286,31.723ZM26.392,35.604C26.392,37.896 28.215,39.743 30.507,39.743C32.752,39.743 34.599,37.896 34.599,35.604C34.599,33.29 32.752,31.466 30.507,31.466C28.239,31.466 26.392,33.29 26.392,35.604ZM44.42,31.442C42.666,31.442 41.193,32.658 40.772,34.482L48.044,34.482C47.647,32.658 46.174,31.442 44.42,31.442Z" style="fill:white;"/>
</svg>
